<svg width="234" height="79" viewBox="0 0 234 79" fill="none" xmlns="http://www.w3.org/2000/svg">
<path d="M84.838 51.88V56.248H112.18V51.88H84.838ZM80.722 61.75V66.286H115.918V61.75H80.722ZM84.838 34.66V53.098H90.508V39.154H111.844V34.66H84.838ZM88.786 43.228V47.554H110.962V43.228H88.786ZM133.975 32.98V34.786C133.975 39.364 129.565 44.446 120.619 45.622L122.803 50.116C133.009 48.604 138.889 42.262 138.889 34.786V32.98H133.975ZM135.025 32.98V34.786C135.025 42.262 140.905 48.604 151.111 50.116L153.253 45.622C144.349 44.446 139.897 39.322 139.897 34.786V32.98H135.025ZM134.017 56.5V70.738H139.561V56.5H134.017ZM119.359 52.972V57.508H154.513V52.972H119.359ZM162.069 49.192V53.644H189.411V49.192H162.069ZM157.995 61.792V66.37H193.191V61.792H157.995ZM172.737 51.208V63.262H178.323V51.208H172.737ZM162.069 34.492V51.124H167.655V38.986H189.117V34.492H162.069ZM221.622 31.846V53.518H227.208V31.846H221.622ZM225.654 40.288V44.866H232.374V40.288H225.654ZM210.45 34.072V36.844C210.45 42.682 205.704 47.638 196.17 50.032L198.354 54.442C209.946 51.418 216.414 44.404 216.414 34.072H210.45ZM198.018 34.072V38.482H213.81V34.072H198.018ZM201.966 55.072V70.318H227.208V55.072H201.966ZM221.706 59.482V65.908H207.468V59.482H221.706Z" fill="white"/>
<path fill-rule="evenodd" clip-rule="evenodd" d="M18.5 5C15.4624 5 13 7.46243 13 10.5V55H54.5H57V57.5V65.5C57 68.5376 59.4624 71 62.5 71C65.5376 71 68 68.5376 68 65.5V57.5V21V18.5V10.5C68 8.48338 68.5685 6.59953 69.554 5H18.5ZM53.554 71C53.5427 70.9816 53.5314 70.9631 53.5201 70.9446C52.5555 69.3571 52 67.4934 52 65.5V60H5V65.5C5 68.5376 7.46244 71 10.5 71H53.554ZM62.5 76H10.5C4.70101 76 0 71.299 0 65.5V57.5V55H2.5H8V10.5C8 4.70101 12.701 0 18.5 0H78.5C84.299 0 89 4.70101 89 10.5V18.5V21H86.5H78.5H73V57.5V65.5C73 71.299 68.299 76 62.5 76ZM73 10.5C73 7.46243 75.4624 5 78.5 5C81.5376 5 84 7.46243 84 10.5V16H78.5H73V10.5Z" fill="white"/>
</svg>
